<?xml version="1.0" encoding="UTF-8"?>
<svg id="Layer_1" data-name="Layer 1" xmlns="http://www.w3.org/2000/svg" viewBox="0 0 935.9 398.9">
  <defs>
    <style>
      .cls-1 {
        fill: #fff;
      }

      .cls-1, .cls-2 {
        fill-rule: evenodd;
      }

      .cls-2 {
        stroke: #f4f8f9;
        stroke-width: 20px;
      }
    </style>
  </defs>
  <path class="cls-2" d="M110,10h715.9c55.23,0,100,45.67,100,100v178.9c0,55.23-44.77,100-100,100H110c-54.33,0-100-44.77-100-100V110C10,55.67,55.67,10,110,10Z"/>
  <path class="cls-1" d="M819.99,213.82v14.37h14.37v28.74h-14.37v14.37h-28.74v-14.37h-14.37v-14.37h-14.37v-14.37h-14.37v-43.11h14.37v-14.37h14.37v-14.37h14.37v-14.37h28.74v14.37h14.37v28.74h-14.37v14.37h-14.37v14.37h14.37ZM719.41,242.56h-14.37v14.37h-14.37v14.37h-28.74v-14.37h-14.37v-28.74h14.37v-14.37h14.37v-14.37h-14.37v-14.37h-14.37v-28.74h14.37v-14.37h28.74v14.37h14.37v14.37h14.37v14.37h14.37v43.11h-14.37v14.37ZM618.83,271.3h-14.37v14.37h-14.37v14.37h-28.74v-14.37h14.37v-28.74h14.37v-114.95h-14.37v-28.74h-14.37v-14.37h28.74v14.37h14.37v14.37h14.37v28.74h14.37v86.21h-14.37v28.74ZM532.61,271.3h-14.37v14.37h-14.37v14.37h-28.74v-14.37h14.37v-28.74h14.37v-114.95h-14.37v-28.74h-14.37v-14.37h28.74v14.37h14.37v14.37h14.37v28.74h14.37v86.21h-14.37v28.74ZM446.4,271.3h-14.37v14.37h-14.37v14.37h-28.74v-14.37h14.37v-28.74h14.37v-114.95h-14.37v-28.74h-14.37v-14.37h28.74v14.37h14.37v14.37h14.37v28.74h14.37v86.21h-14.37v28.74ZM360.18,285.66h-28.74v-14.37h-14.37v-28.74h-14.37v-14.37h-28.74v14.37h-14.37v28.74h-14.37v14.37h-28.74v-14.37h-14.37v-43.11h14.37v-28.74h14.37v-14.37h14.37v-14.37h-14.37v-14.37h-14.37v-28.74h14.37v-14.37h28.74v14.37h14.37v14.37h28.74v-14.37h14.37v-14.37h28.74v14.37h14.37v28.74h-14.37v14.37h-14.37v14.37h14.37v14.37h14.37v28.74h14.37v43.11h-14.37v14.37ZM173.38,271.3h-28.74v-14.37h-14.37v-14.37h-14.37v-14.37h-14.37v-43.11h14.37v-14.37h14.37v-14.37h14.37v-14.37h28.74v14.37h14.37v28.74h-14.37v14.37h-14.37v14.37h14.37v14.37h14.37v28.74h-14.37v14.37Z"/>
</svg>